<?xml version="1.0" standalone="no"?><!DOCTYPE svg PUBLIC "-//W3C//DTD SVG 1.1//EN" "http://www.w3.org/Graphics/SVG/1.1/DTD/svg11.dtd"><svg t="1753272708769" class="icon" viewBox="0 0 1024 1024" version="1.1" xmlns="http://www.w3.org/2000/svg" p-id="1612" xmlns:xlink="http://www.w3.org/1999/xlink" width="200" height="200"><path d="M970.28182 563.258493H53.918155c-30.7161 0-51.193501-20.4774-51.193501-51.193501 0-30.7161 20.4774-51.193501 51.193501-51.193501h916.363665c30.7161 0 51.193501 20.4774 51.193501 51.193501 0 30.7161-25.59675 51.193501-51.193501 51.193501z m0 0" fill="#bbb" p-id="1613"></path><path d="M509.540312 1024c-30.7161 0-51.193501-20.4774-51.193501-51.193501V51.323484c0-30.7161 20.4774-51.193501 51.193501-51.193501 30.7161 0 51.193501 20.4774 51.193501 51.193501v921.483015c0 25.59675-20.4774 51.193501-51.193501 51.193501z m0 0" fill="#bbb" p-id="1614"></path></svg>